PathFileType	4	(X/Y/Z)	staticVerif.trc	
DataRate	CameraRate	NumFrames	NumMarkers	Units	OrigDataRate	OrigDataStartFrame	OrigNumFrames	
100.00	100.00	4	125	mm	100.00	152	9	
Frame#	Time	LASI			RASI			LPSI			RPSI			LTHI			LKNE			LTHAP			LTHAD			LTHLD			LKNM			LTIB			LANK			LTIAP			LTIAD			LMED			LHEE			LTOE			LCALC			RTHI			RKNE			RTHAP			RTHAD			RTHLD			RKNM			RTIB			RANK			RTIAP			RTIAD			RMED			RHEE			RTOE			RCALC			MAN			T10			T2			PELVISO			PELVISA			PELVISL			PELVISP			LFEMURO			LFEMURA			LFEMURL			LFEMURP			LTIBIAO			LTIBIAA			LTIBIAL			LTIBIAP			LFOOTO			LFOOTA			LFOOTL			LFOOTP			LTOESO			LTOESA			LTOESL			LTOESP			RFEMURO			RFEMURA			RFEMURL			RFEMURP			RTIBIAO			RTIBIAA			RTIBIAL			RTIBIAP			RFOOTO			RFOOTA			RFOOTL			RFOOTP			RTOESO			RTOESA			RTOESL			RTOESP			LHJC			LKJC			RHJC			RKJC			LAJC			RAJC			C7			CLAV			STRN			LSHO			LELB			LWRA			LWRB			LFIN			RSHO			RELB			RWRA			RWRB			RFIN			LFHD			LBHD			RFHD			RBHD			SACR			midASIS			pelvisCentre			midHJC			midTop			midBottom			midFront			OT			C7o			LVWM			RVWM			LSJC			RSJC			midFH			midBH			midLH			HC			LMWP			LCVM			LEJC			LWJC			LHO			RMWP			RCVM			REJC			RWJC			RHO			LKJC_MID			RKJC_MID			LAJC_MID			RAJC_MID			
		X1	Y1	Z1	X2	Y2	Z2	X3	Y3	Z3	X4	Y4	Z4	X5	Y5	Z5	X6	Y6	Z6	X7	Y7	Z7	X8	Y8	Z8	X9	Y9	Z9	X10	Y10	Z10	X11	Y11	Z11	X12	Y12	Z12	X13	Y13	Z13	X14	Y14	Z14	X15	Y15	Z15	X16	Y16	Z16	X17	Y17	Z17	X18	Y18	Z18	X19	Y19	Z19	X20	Y20	Z20	X21	Y21	Z21	X22	Y22	Z22	X23	Y23	Z23	X24	Y24	Z24	X25	Y25	Z25	X26	Y26	Z26	X27	Y27	Z27	X28	Y28	Z28	X29	Y29	Z29	X30	Y30	Z30	X31	Y31	Z31	X32	Y32	Z32	X33	Y33	Z33	X34	Y34	Z34	X35	Y35	Z35	X36	Y36	Z36	X37	Y37	Z37	X38	Y38	Z38	X39	Y39	Z39	X40	Y40	Z40	X41	Y41	Z41	X42	Y42	Z42	X43	Y43	Z43	X44	Y44	Z44	X45	Y45	Z45	X46	Y46	Z46	X47	Y47	Z47	X48	Y48	Z48	X49	Y49	Z49	X50	Y50	Z50	X51	Y51	Z51	X52	Y52	Z52	X53	Y53	Z53	X54	Y54	Z54	X55	Y55	Z55	X56	Y56	Z56	X57	Y57	Z57	X58	Y58	Z58	X59	Y59	Z59	X60	Y60	Z60	X61	Y61	Z61	X62	Y62	Z62	X63	Y63	Z63	X64	Y64	Z64	X65	Y65	Z65	X66	Y66	Z66	X67	Y67	Z67	X68	Y68	Z68	X69	Y69	Z69	X70	Y70	Z70	X71	Y71	Z71	X72	Y72	Z72	X73	Y73	Z73	X74	Y74	Z74	X75	Y75	Z75	X76	Y76	Z76	X77	Y77	Z77	X78	Y78	Z78	X79	Y79	Z79	X80	Y80	Z80	X81	Y81	Z81	X82	Y82	Z82	X83	Y83	Z83	X84	Y84	Z84	X85	Y85	Z85	X86	Y86	Z86	X87	Y87	Z87	X88	Y88	Z88	X89	Y89	Z89	X90	Y90	Z90	X91	Y91	Z91	X92	Y92	Z92	X93	Y93	Z93	X94	Y94	Z94	X95	Y95	Z95	X96	Y96	Z96	X97	Y97	Z97	X98	Y98	Z98	X99	Y99	Z99	X100	Y100	Z100	X101	Y101	Z101	X102	Y102	Z102	X103	Y103	Z103	X104	Y104	Z104	X105	Y105	Z105	X106	Y106	Z106	X107	Y107	Z107	X108	Y108	Z108	X109	Y109	Z109	X110	Y110	Z110	X111	Y111	Z111	X112	Y112	Z112	X113	Y113	Z113	X114	Y114	Z114	X115	Y115	Z115	X116	Y116	Z116	X117	Y117	Z117	X118	Y118	Z118	X119	Y119	Z119	X120	Y120	Z120	X121	Y121	Z121	X122	Y122	Z122	X123	Y123	Z123	X124	Y124	Z124	X125	Y125	Z125	

1	0.000	654.27985	356.80682	1041.72351	653.30237	145.69327	1040.42603	467.66928	292.10806	1058.86694	468.82211	210.37315	1053.90576	523.05951	483.19229	745.39166	520.68689	420.24820	576.20123	659.44940	374.45123	826.80487	630.69336	361.14587	679.14990	537.39166	428.65753	705.27930	529.90277	305.78705	559.77844	467.60284	499.47226	390.26520	492.43811	423.94611	161.17380	556.97815	369.64740	443.98590	541.67145	374.94937	315.74521	519.91101	335.83487	174.35255	446.06421	373.92389	149.07144	605.36432	394.50119	152.19250	441.34891	377.55606	125.32931	587.07819	22.62872	756.88165	529.58173	96.00096	578.83643	670.04388	143.35046	825.60449	640.68152	151.24371	678.03851	575.69586	77.36412	720.79187	531.08063	212.85028	567.57800	475.35791	22.22544	376.48923	493.31186	98.09618	163.28648	564.27594	148.04042	430.13724	549.36969	145.64430	317.89249	523.49347	185.33398	172.33136	446.80148	150.74091	156.95570	603.98462	102.37546	147.62779	443.46545	148.73587	131.40361	609.67047	258.92313	1475.03198	431.43457	255.99825	1240.30688	439.35324	260.04309	1514.96045	595.37201	251.74001	969.36499	759.16516	251.06525	955.85236	596.13098	416.08624	970.35785	608.88019	250.68811	1133.15649	525.31702	363.01801	567.98798	926.76086	405.14624	500.53775	488.72623	769.04688	603.80902	595.92462	333.91052	970.04370	505.59198	381.74799	167.49001	889.18835	499.27417	154.09384	388.96103	765.12091	191.16365	525.31696	363.01770	567.98737	615.02899	386.14600	157.15199	615.69861	381.07639	310.71588	595.35144	538.44397	162.26561	462.64670	366.45706	157.16647	665.82300	392.70901	157.14700	666.04620	391.01913	208.33493	659.26379	443.47498	158.85155	615.02893	386.14603	157.15182	530.32599	154.42300	573.21698	925.99225	143.21306	509.12097	538.96082	554.96100	556.46881	594.81940	169.56892	968.68750	507.44403	138.95900	167.52699	891.95166	7.72408	150.84172	637.74139	523.51770	145.51952	530.32635	154.42271	573.21704	622.19598	114.19300	156.18600	625.05548	123.45338	320.62265	670.54895	271.35980	146.49420	464.75659	162.63045	156.19604	674.67603	98.04720	156.18201	675.62921	101.13400	210.99419	690.79364	150.43611	152.95140	622.19629	114.19301	156.18535	595.82224	334.02186	970.04020	525.19982	363.07843	567.98346	594.70269	169.68038	968.69919	530.27341	154.51728	573.21952	505.58081	381.76719	167.47882	507.45287	138.98233	167.52836																																																				468.24570	251.24061	1056.38635	653.79111	251.25005	1041.07477	561.01840	251.24533	1048.73056	595.26246	251.85112	969.36970				215.71729	127.99912	620.15344																																																																525.29483	363.01761	567.98984	530.33118	154.42562	573.20721	505.59537	381.74808	167.48534	507.45034	138.96247	167.52353 
2	0.010	654.25732	356.83871	1041.72070	653.27545	145.71587	1040.43213	467.65033	292.14139	1058.86633	468.78979	210.40350	1053.90735	523.04779	483.21609	745.38947	520.66541	420.26312	576.19806	659.40680	374.46298	826.80286	630.67114	361.15558	679.14148	537.37451	428.67563	705.27588	529.87848	305.80124	559.77875	467.58905	499.48245	390.25827	492.43777	423.95142	161.17091	556.96149	369.65878	443.98761	541.65967	374.95425	315.74622	519.90448	335.83728	174.35265	446.06161	373.92792	149.06725	605.36072	394.50308	152.19243	441.34454	377.55914	125.32484	587.03876	22.64771	756.88708	529.56073	96.02284	578.84094	670.01617	143.36514	825.61133	640.66382	151.25395	678.04199	575.66669	77.38022	720.79102	531.07245	212.87169	567.57928	475.33777	22.24412	376.49225	493.30957	98.10156	163.28963	564.26929	148.05296	430.14142	549.36908	145.65430	317.89633	523.49725	185.33794	172.33014	446.80231	150.74664	156.95334	603.98438	102.37570	147.62863	443.46689	148.74207	131.40208	609.65936	258.96576	1475.02551	431.41269	256.03683	1240.31458	439.33569	260.08786	1514.96509	595.34399	251.76701	969.36603	759.13702	251.08878	955.85162	596.10626	416.11328	970.35645	608.85388	250.71730	1133.15747	525.28802	363.03201	567.98700	926.73511	405.11819	500.52975	488.73685	769.06616	603.78845	595.89777	333.93756	970.04327	505.59003	381.75299	167.48801	889.18970	499.27103	154.11380	388.96533	765.12885	191.14499	525.28876	363.03183	567.98706	615.02802	386.14700	157.15199	615.69427	381.08197	310.71603	595.35522	538.44568	162.26064	462.64511	366.46292	157.16386	665.82202	392.70801	157.14799	666.04413	391.01965	208.33597	659.26440	443.47421	158.85088	615.02777	386.14664	157.15195	530.31201	154.44501	573.21698	925.97974	143.18294	509.13898	538.99811	554.98132	556.45538	594.78973	169.59645	968.68988	507.44598	138.96600	167.52600	891.94067	7.69017	150.86295	637.78448	523.51013	145.50714	530.31262	154.44521	573.21631	622.19702	114.19300	156.18800	625.05438	123.45860	320.62439	670.55884	271.35681	146.49182	464.76035	162.63916	156.19392	674.67499	98.04400	156.18600	675.62744	101.13253	210.99809	690.79559	150.43190	152.95395	622.19611	114.19271	156.18797	595.82224	334.02186	970.04020	525.19982	363.07843	567.98346	594.70269	169.68038	968.69919	530.27341	154.51728	573.21952	505.58081	381.76719	167.47882	507.45287	138.98233	167.52836																																																				468.22006	251.27245	1056.38684	653.76639	251.27729	1041.07642	560.99323	251.27487	1048.73163	595.26246	251.85112	969.36970				215.70634	128.01842	620.15729																																																																525.27194	363.03218	567.98840	530.31659	154.44726	573.21011	505.59188	381.75260	167.48379	507.45087	138.96709	167.52462 
3	0.020	654.23492	356.87143	1041.71777	653.24878	145.73874	1040.43872	467.63165	292.17545	1058.86572	468.75732	210.43448	1053.90906	523.03619	483.24051	745.38727	520.64362	420.27829	576.19482	659.36383	374.47501	826.80066	630.64893	361.16556	679.13232	537.35724	428.69409	705.27240	529.85376	305.81570	559.77899	467.57498	499.49280	390.25122	492.43747	423.95688	161.16797	556.94452	369.67041	443.98935	541.64771	374.95926	315.74722	519.89777	335.83972	174.35274	446.05899	373.93204	149.06296	605.35706	394.50500	152.19235	441.34006	377.56229	125.32030	586.99884	22.66714	756.89258	529.53961	96.04529	578.84552	669.98846	143.38010	825.61823	640.64618	151.26437	678.04553	575.63733	77.39671	720.79010	531.06451	212.89365	567.58069	475.31732	22.26332	376.49539	493.30725	98.10711	163.29288	564.26276	148.06583	430.14566	549.36877	145.66460	317.90030	523.50116	185.34203	172.32890	446.80322	150.75256	156.95093	603.98413	102.37596	147.62949	443.46838	148.74847	131.40053	609.64832	259.00946	1475.01953	431.39084	256.07642	1240.32214	439.31772	260.13367	1514.96960	595.31702	251.79401	969.36798	759.11005	251.11198	955.85376	596.08276	416.14026	970.35455	608.82672	250.74780	1133.15942	525.26001	363.04700	567.98602	926.71014	405.09229	500.52161	488.74750	769.08624	603.76917	595.87231	333.96451	970.04272	505.58603	381.75800	167.48500	889.18982	499.26459	154.13074	388.97098	765.13788	191.12436	525.26001	363.04730	567.98578	615.02502	386.14899	157.15199	615.68707	381.08838	310.71622	595.35419	538.44812	162.25572	462.64182	366.46704	157.16032	665.81897	392.70999	157.14900	666.03967	391.02313	208.33704	659.26202	443.47635	158.85025	615.02460	386.14935	157.15178	530.29901	154.46800	573.21802	925.96808	143.15051	509.15833	539.03992	555.00262	556.44403	594.76086	169.62338	968.69336	507.44803	138.97099	167.52699	891.92859	7.65088	150.88654	637.83093	523.49933	145.49445	530.29944	154.46780	573.21753	622.19800	114.19300	156.18900	625.05688	123.46387	320.62506	670.56573	271.35464	146.48734	464.76318	162.64516	156.19444	674.67603	98.04230	156.18700	675.62897	101.13258	210.99898	690.79858	150.42947	152.95311	622.19775	114.19301	156.18881	595.82224	334.02186	970.04020	525.19982	363.07843	567.98346	594.70269	169.68038	968.69919	530.27341	154.51728	573.21952	505.58081	381.76719	167.47882	507.45287	138.98233	167.52836																																																				468.19449	251.30496	1056.38739	653.74185	251.30508	1041.07825	560.96817	251.30502	1048.73282	595.26246	251.85112	969.36970				215.69542	128.03821	620.16107																																																																525.24869	363.04698	567.98690	530.30206	154.46947	573.21310	505.58831	381.75725	167.48220	507.45143	138.97185	167.52576 
4	0.030	654.21265	356.90503	1041.71460	653.22241	145.76187	1040.44543	467.61325	292.21021	1058.86511	468.72470	210.46609	1053.91089	523.02472	483.26553	745.38495	520.62146	420.29376	576.19153	659.32037	374.48727	826.79828	630.62677	361.17578	679.12238	537.33984	428.71292	705.26880	529.82861	305.83044	559.77917	467.56064	499.50333	390.24408	492.43716	423.96243	161.16495	556.92731	369.68225	443.99109	541.63562	374.96436	315.74826	519.89099	335.84222	174.35284	446.05627	373.93625	149.05859	605.35333	394.50699	152.19225	441.33545	377.56552	125.31569	586.95844	22.68701	756.89807	529.51843	96.06825	578.85022	669.96063	143.39534	825.62524	640.62866	151.27499	678.04907	575.60773	77.41358	720.78906	531.05682	212.91614	567.58215	475.29657	22.28305	376.49866	493.30487	98.11284	163.29626	564.25641	148.07899	430.14999	549.36871	145.67520	317.90433	523.50525	185.34624	172.32762	446.80420	150.75868	156.94847	603.98389	102.37624	147.63037	443.46997	148.75508	131.39896	609.63727	259.05420	1475.01404	431.36905	256.11694	1240.32971	439.29929	260.18057	1514.97375	595.28900	251.82101	969.36902	759.08185	251.13446	955.85309	596.05884	416.16730	970.35052	608.80042	250.77953	1133.16040	525.23102	363.06201	567.98499	926.68420	405.06314	500.51111	488.76068	769.10669	603.75000	595.84778	333.99094	970.04175	505.58401	381.76199	167.48199	889.19214	499.25708	154.14972	388.97852	765.14594	191.10231	525.23090	363.06256	567.98462	615.02197	386.15201	157.15199	615.67950	381.09613	310.71637	595.35309	538.45154	162.25044	462.63855	366.47214	157.15651	665.81702	392.71201	157.14999	666.03619	391.02670	208.33809	659.26074	443.47849	158.84947	615.02258	386.15207	157.15150	530.28601	154.49200	573.21899	925.95654	143.11841	509.17807	539.08258	555.02490	556.43353	594.73151	169.65028	968.69690	507.44998	138.97600	167.52800	891.91663	7.61226	150.91086	637.87653	523.48865	145.48055	530.28589	154.49184	573.21869	622.19897	114.19300	156.19099	625.05743	123.46980	320.62674	670.57294	271.35239	146.48380	464.76605	162.65137	156.19389	674.67700	98.04020	156.19000	675.62982	101.13246	211.00188	690.80164	150.42664	152.95427	622.19940	114.19298	156.19096	595.82224	334.02186	970.04020	525.19982	363.07843	567.98346	594.70269	169.68038	968.69919	530.27341	154.51728	573.21952	505.58081	381.76719	167.47882	507.45287	138.98233	167.52836																																																				468.16898	251.33815	1056.38800	653.71753	251.33345	1041.08002	560.94325	251.33580	1048.73401	595.26246	251.85112	969.36970				215.68452	128.05847	620.16486																																																																525.22504	363.06208	567.98535	530.28763	154.49219	573.21619	505.58470	381.76199	167.48058	507.45205	138.97677	167.52695 
